<?xml version="1.0" encoding="UTF-8"?>
<svg xmlns="http://www.w3.org/2000/svg" xmlns:xlink="http://www.w3.org/1999/xlink" width="1920pt" height="1080pt" viewBox="0 0 1920 1080" version="1.1">
<defs>
<g>
<symbol overflow="visible" id="glyph0-0">
<path style="stroke:none;" d="M 0.25 0.890625 L 0.25 -3.53125 L 2.75 -3.53125 L 2.75 0.890625 Z M 0.53125 0.609375 L 2.46875 0.609375 L 2.46875 -3.25 L 0.53125 -3.25 Z "/>
</symbol>
<symbol overflow="visible" id="glyph0-1">
<path style="stroke:none;" d="M 2.703125 -1.25 L 0.78125 -1.25 L 0.78125 -1.234375 C 0.78125 -0.878906 0.84375 -0.613281 0.96875 -0.4375 C 1.101562 -0.257812 1.300781 -0.171875 1.5625 -0.171875 C 1.75 -0.171875 1.90625 -0.222656 2.03125 -0.328125 C 2.164062 -0.429688 2.257812 -0.582031 2.3125 -0.78125 L 2.671875 -0.78125 C 2.597656 -0.5 2.460938 -0.285156 2.265625 -0.140625 C 2.078125 0.00390625 1.828125 0.078125 1.515625 0.078125 C 1.128906 0.078125 0.820312 -0.046875 0.59375 -0.296875 C 0.363281 -0.546875 0.25 -0.878906 0.25 -1.296875 C 0.25 -1.710938 0.359375 -2.046875 0.578125 -2.296875 C 0.804688 -2.546875 1.109375 -2.671875 1.484375 -2.671875 C 1.867188 -2.671875 2.164062 -2.546875 2.375 -2.296875 C 2.59375 -2.054688 2.703125 -1.707031 2.703125 -1.25 Z M 2.1875 -1.515625 C 2.175781 -1.816406 2.109375 -2.039062 1.984375 -2.1875 C 1.867188 -2.34375 1.703125 -2.421875 1.484375 -2.421875 C 1.273438 -2.421875 1.109375 -2.34375 0.984375 -2.1875 C 0.867188 -2.03125 0.800781 -1.804688 0.78125 -1.515625 Z "/>
</symbol>
<symbol overflow="visible" id="glyph0-2">
<path style="stroke:none;" d="M 2.625 -2.328125 L 2.625 -0.0625 C 2.625 0.3125 2.519531 0.597656 2.3125 0.796875 C 2.113281 1.003906 1.820312 1.109375 1.4375 1.109375 C 1.269531 1.109375 1.109375 1.09375 0.953125 1.0625 C 0.796875 1.03125 0.644531 0.984375 0.5 0.921875 L 0.5 0.375 L 0.734375 0.375 C 0.765625 0.550781 0.832031 0.675781 0.9375 0.75 C 1.050781 0.832031 1.207031 0.875 1.40625 0.875 C 1.675781 0.875 1.867188 0.796875 1.984375 0.640625 C 2.109375 0.492188 2.171875 0.257812 2.171875 -0.0625 L 2.171875 -0.40625 C 2.085938 -0.238281 1.976562 -0.113281 1.84375 -0.03125 C 1.707031 0.0390625 1.535156 0.078125 1.328125 0.078125 C 1.015625 0.078125 0.753906 -0.046875 0.546875 -0.296875 C 0.347656 -0.554688 0.25 -0.890625 0.25 -1.296875 C 0.25 -1.703125 0.347656 -2.03125 0.546875 -2.28125 C 0.753906 -2.539062 1.015625 -2.671875 1.328125 -2.671875 C 1.535156 -2.671875 1.707031 -2.628906 1.84375 -2.546875 C 1.976562 -2.472656 2.085938 -2.351562 2.171875 -2.1875 L 2.171875 -2.59375 L 3.046875 -2.59375 L 3.046875 -2.328125 Z M 2.171875 -1.421875 C 2.171875 -1.734375 2.109375 -1.972656 1.984375 -2.140625 C 1.867188 -2.304688 1.695312 -2.390625 1.46875 -2.390625 C 1.238281 -2.390625 1.066406 -2.296875 0.953125 -2.109375 C 0.835938 -1.929688 0.78125 -1.660156 0.78125 -1.296875 C 0.78125 -0.941406 0.835938 -0.671875 0.953125 -0.484375 C 1.066406 -0.296875 1.238281 -0.203125 1.46875 -0.203125 C 1.695312 -0.203125 1.867188 -0.285156 1.984375 -0.453125 C 2.109375 -0.617188 2.171875 -0.859375 2.171875 -1.171875 Z "/>
</symbol>
<symbol overflow="visible" id="glyph0-3">
<path style="stroke:none;" d="M 1.5 -0.171875 C 1.738281 -0.171875 1.921875 -0.265625 2.046875 -0.453125 C 2.171875 -0.648438 2.234375 -0.929688 2.234375 -1.296875 C 2.234375 -1.671875 2.171875 -1.953125 2.046875 -2.140625 C 1.921875 -2.328125 1.738281 -2.421875 1.5 -2.421875 C 1.257812 -2.421875 1.078125 -2.328125 0.953125 -2.140625 C 0.835938 -1.953125 0.78125 -1.671875 0.78125 -1.296875 C 0.78125 -0.929688 0.835938 -0.648438 0.953125 -0.453125 C 1.078125 -0.265625 1.257812 -0.171875 1.5 -0.171875 Z M 1.5 0.078125 C 1.125 0.078125 0.820312 -0.046875 0.59375 -0.296875 C 0.363281 -0.546875 0.25 -0.878906 0.25 -1.296875 C 0.25 -1.710938 0.363281 -2.046875 0.59375 -2.296875 C 0.820312 -2.546875 1.125 -2.671875 1.5 -2.671875 C 1.882812 -2.671875 2.191406 -2.546875 2.421875 -2.296875 C 2.648438 -2.046875 2.765625 -1.710938 2.765625 -1.296875 C 2.765625 -0.878906 2.648438 -0.546875 2.421875 -0.296875 C 2.191406 -0.046875 1.882812 0.078125 1.5 0.078125 Z "/>
</symbol>
</g>
</defs>
<g id="surface1">
<g style="fill:rgb(100%,100%,100%);fill-opacity:1;">
  <use xlink:href="#glyph0-1" x="30" y="24.641602"/>
  <use xlink:href="#glyph0-2" x="33" y="24.641602"/>
  <use xlink:href="#glyph0-3" x="36" y="24.641602"/>
</g>
</g>
</svg>
